# xmcd CD database file
#
# Track frame offsets:
#	150
#	21375
#	37960
#	64272
#	86642
#	105500
#	118817
#	134200
#	151125
#	166202
#	184995
#	199362
#	216677
#	233622
#	255530
#	272352
#	297522
#	311477
#
# Disc length: 4450 seconds
#
# Revision: 0
# Processed by: cddbd v1.5.2PL0 Copyright (c) Steve Scherf et al.
# Submitted via: CDex 1.70beta2
#
DISCID=10116012
DTITLE=Georges Arvanitas - Orgue Hammond
DYEAR=2007
DGENRE=Jazz
TTITLE0=Moanin'
TTITLE1=Cry Me A River
TTITLE2=Misty
TTITLE3=How Insensitive
TTITLE4=Bluesette
TTITLE5=The Man I Love
TTITLE6=Trois Trois Deux Blues
TTITLE7=Triste
TTITLE8=Lyon's Blues
TTITLE9=Satin Doll
TTITLE10=Please Bossa
TTITLE11=Tenderly
TTITLE12=Twistiti
TTITLE13=The Girl From Ipanema
TTITLE14=Mood Indigo
TTITLE15=Stranger In Paradise
TTITLE16=Blues For Jo
TTITLE17=Mack The Knife
EXTD=YEAR: 2007
EXTT0=
EXTT1=
EXTT2=
EXTT3=
EXTT4=
EXTT5=
EXTT6=
EXTT7=
EXTT8=
EXTT9=
EXTT10=
EXTT11=
EXTT12=
EXTT13=
EXTT14=
EXTT15=
EXTT16=
EXTT17=
PLAYORDER=
